# xmcd CD database file
# Copyright (C) 1993-1998 Ti Kan
#
# Track frame offsets:
#	150
#	13705
#	29775
#	43455
#	57535
#	73385
#	86150
#	102060
#	113207
#	123800
#	138787
#	149325
#	162950
#	182025
#	198047
#
# Disc length: 2842 seconds
#
# Revision: 1
# Processed by: cddbd v1.4b41PL1 Copyright (c) Steve Scherf et al.
# Submitted via: NotifyCDPlayer(CDDB) 1.51.3
#
DISCID=dd0b180f
DTITLE=Ernie Hawkins - ...blues advice
DYEAR=1900
DGENRE=
TTITLE0=Police Dog Blues
TTITLE1=Hard Time Killin' Floor Blues
TTITLE2=Another Friend Like Me
TTITLE3=What Am I to Do Blues
TTITLE4=Will There Be Stars in My Crown
TTITLE5=If You Haven't Any Hay, Get On Down That Road
TTITLE6=Penitentiary Blues
TTITLE7=Crow Jane
TTITLE8=Florida Blues
TTITLE9=Where the Mississippi Meets The Monongahela
TTITLE10=Cold Winter Day
TTITLE11=Call up China
TTITLE12=Samson and Delilah
TTITLE13=Cocaine
TTITLE14=Down South When You Do Anything That's Wrong
EXTD=
EXTT0=
EXTT1=
EXTT2=
EXTT3=
EXTT4=
EXTT5=
EXTT6=
EXTT7=
EXTT8=
EXTT9=
EXTT10=
EXTT11=
EXTT12=
EXTT13=
EXTT14=
PLAYORDER=
